# xmcd
#
# Track frame offsets: 
#        150
#        12367
#        26645
#        37304
#        54982
#        69154
#        84970
#        102430
#        115497
#        129150
#        144178
#        155817
#        168641
#        179922
#        195047
#        207381
#        220790
#        234573
#        245888
#        263145
#
# Disc length: 3695 seconds
#
# Revision: 0
# Processed by: cddbd v1.5.1PL2 Copyright (c) Steve Scherf et al.
# Submitted via: ExactAudioCopy v0.95a5
#
DISCID=200e6d14
DTITLE=Elder and Luan - Velha Morada
DYEAR=2006
DGENRE=Sertanejo
TTITLE0=Amor Distante
TTITLE1=Estrada Desse Amor
TTITLE2=Negócio da Minha Mulher
TTITLE3=Te Encontrei
TTITLE4=Caminhãozinho
TTITLE5=Não da Mais
TTITLE6=Saudade Doendo
TTITLE7=Caí na Gandaia
TTITLE8=Grito das Mulheres
TTITLE9=Velha Morada
TTITLE10=Saudade Vai e Vem
TTITLE11=Oi Menina
TTITLE12=Quando Abrir os Olhos
TTITLE13=Vou Chutar a Solidão
TTITLE14=Escada Veia
TTITLE15=Toca Sanfoneiro
TTITLE16=Coisa Feia
TTITLE17=Só Teu Amor
TTITLE18=Te Quero
TTITLE19=Onde é que Você Foi
EXTD=
EXTT0=
EXTT1=
EXTT2=
EXTT3=
EXTT4=
EXTT5=
EXTT6=
EXTT7=
EXTT8=
EXTT9=
EXTT10=
EXTT11=
EXTT12=
EXTT13=
EXTT14=
EXTT15=
EXTT16=
EXTT17=
EXTT18=
EXTT19=
PLAYORDER=
